<svg width="22" height="30" viewBox="0 0 22 30" fill="none" xmlns="http://www.w3.org/2000/svg">
<path d="M17.6673 19.326V28.4887C17.6673 28.6066 17.6361 28.7225 17.5767 28.8244C17.5173 28.9263 17.432 29.0106 17.3293 29.0688C17.2267 29.1269 17.1105 29.1568 16.9926 29.1554C16.8746 29.154 16.7592 29.1213 16.658 29.0606L11.0007 25.666L5.34332 29.0606C5.24204 29.1213 5.12646 29.154 5.0084 29.1554C4.89034 29.1568 4.77404 29.1268 4.67138 29.0685C4.56871 29.0102 4.48338 28.9256 4.4241 28.8235C4.36482 28.7214 4.33372 28.6054 4.33398 28.4873V19.3273C2.60885 17.9461 1.35531 16.0632 0.746596 13.9387C0.137885 11.8142 0.204059 9.55317 0.935973 7.46795C1.66789 5.38272 3.0294 3.57631 4.83236 2.29835C6.63532 1.02039 8.79071 0.333984 11.0007 0.333984C13.2106 0.333984 15.366 1.02039 17.1689 2.29835C18.9719 3.57631 20.3334 5.38272 21.0653 7.46795C21.7972 9.55317 21.8634 11.8142 21.2547 13.9387C20.646 16.0632 19.3925 17.9461 17.6673 19.3273V19.326ZM11.0007 18.9993C13.1224 18.9993 15.1572 18.1565 16.6575 16.6562C18.1578 15.1559 19.0007 13.121 19.0007 10.9993C19.0007 8.87758 18.1578 6.84275 16.6575 5.34246C15.1572 3.84217 13.1224 2.99932 11.0007 2.99932C8.87892 2.99932 6.84409 3.84217 5.3438 5.34246C3.84351 6.84275 3.00065 8.87758 3.00065 10.9993C3.00065 13.121 3.84351 15.1559 5.3438 16.6562C6.84409 18.1565 8.87892 18.9993 11.0007 18.9993V18.9993ZM11.0007 16.3326C9.58616 16.3326 8.22961 15.7707 7.22942 14.7706C6.22922 13.7704 5.66732 12.4138 5.66732 10.9993C5.66732 9.58483 6.22922 8.22827 7.22942 7.22808C8.22961 6.22789 9.58616 5.66598 11.0007 5.66598C12.4151 5.66598 13.7717 6.22789 14.7719 7.22808C15.7721 8.22827 16.334 9.58483 16.334 10.9993C16.334 12.4138 15.7721 13.7704 14.7719 14.7706C13.7717 15.7707 12.4151 16.3326 11.0007 16.3326Z" fill="#274985"/>
</svg>
