<svg width="28" height="28" viewBox="0 0 28 28" fill="none" xmlns="http://www.w3.org/2000/svg">
<path d="M0.666016 24.666H27.3327V27.3327H0.666016V24.666ZM3.33268 13.9993H5.99935V23.3327H3.33268V13.9993ZM9.99935 13.9993H12.666V23.3327H9.99935V13.9993ZM15.3327 13.9993H17.9993V23.3327H15.3327V13.9993ZM21.9993 13.9993H24.666V23.3327H21.9993V13.9993ZM0.666016 7.33268L13.9993 0.666016L27.3327 7.33268V12.666H0.666016V7.33268ZM13.9993 8.66602C14.353 8.66602 14.6921 8.52554 14.9422 8.27549C15.1922 8.02544 15.3327 7.6863 15.3327 7.33268C15.3327 6.97906 15.1922 6.63992 14.9422 6.38987C14.6921 6.13983 14.353 5.99935 13.9993 5.99935C13.6457 5.99935 13.3066 6.13983 13.0565 6.38987C12.8065 6.63992 12.666 6.97906 12.666 7.33268C12.666 7.6863 12.8065 8.02544 13.0565 8.27549C13.3066 8.52554 13.6457 8.66602 13.9993 8.66602Z" fill="#274985"/>
</svg>
