<svg width="27" height="26" viewBox="0 0 27 26" fill="none" xmlns="http://www.w3.org/2000/svg">
<path d="M20 22.6667H6.66667V24C6.66667 24.3536 6.52619 24.6928 6.27614 24.9428C6.02609 25.1929 5.68696 25.3333 5.33333 25.3333H4C3.64638 25.3333 3.30724 25.1929 3.05719 24.9428C2.80714 24.6928 2.66667 24.3536 2.66667 24V22.6667H1.33333V12H0V6.66667H1.33333V2.66667C1.33333 1.95942 1.61428 1.28115 2.11438 0.781048C2.61448 0.280951 3.29276 0 4 0H22.6667C23.3739 0 24.0522 0.280951 24.5523 0.781048C25.0524 1.28115 25.3333 1.95942 25.3333 2.66667V6.66667H26.6667V12H25.3333V22.6667H24V24C24 24.3536 23.8595 24.6928 23.6095 24.9428C23.3594 25.1929 23.0203 25.3333 22.6667 25.3333H21.3333C20.9797 25.3333 20.6406 25.1929 20.3905 24.9428C20.1405 24.6928 20 24.3536 20 24V22.6667ZM4 2.66667V14.6667H22.6667V2.66667H4ZM4 17.3333V20H9.33333V17.3333H4ZM17.3333 17.3333V20H22.6667V17.3333H17.3333Z" fill="#E8B350"/>
</svg>
