<svg width="32" height="24" viewBox="0 0 32 24" fill="none" xmlns="http://www.w3.org/2000/svg">
<path d="M29.3333 12.6667V22.6667C29.3333 23.0203 29.1929 23.3594 28.9428 23.6095C28.6928 23.8595 28.3536 24 28 24H26.6667C26.313 24 25.9739 23.8595 25.7239 23.6095C25.4738 23.3594 25.3333 23.0203 25.3333 22.6667V21.3333H6.66667V22.6667C6.66667 23.0203 6.52619 23.3594 6.27614 23.6095C6.02609 23.8595 5.68696 24 5.33333 24H4C3.64638 24 3.30724 23.8595 3.05719 23.6095C2.80714 23.3594 2.66667 23.0203 2.66667 22.6667V12.6667L1.00933 12.2533C0.721005 12.1811 0.465078 12.0146 0.282207 11.7803C0.0993362 11.546 7.81391e-06 11.2572 0 10.96L0 10C0 9.82319 0.0702379 9.65362 0.195262 9.52859C0.320286 9.40357 0.489856 9.33333 0.666667 9.33333H3.16667L6.01733 1.73067C6.20791 1.22226 6.54914 0.784136 6.99541 0.474871C7.44167 0.165605 7.97171 -6.75979e-05 8.51467 2.06904e-08H23.4853C24.0283 -6.75979e-05 24.5583 0.165605 25.0046 0.474871C25.4509 0.784136 25.7921 1.22226 25.9827 1.73067L28.8333 9.33333H31.3333C31.5101 9.33333 31.6797 9.40357 31.8047 9.52859C31.9298 9.65362 32 9.82319 32 10V10.96C32 11.2572 31.9007 11.546 31.7178 11.7803C31.5349 12.0146 31.279 12.1811 30.9907 12.2533L29.3333 12.6667ZM5.33333 14.6667V17.3333C5.33333 17.687 5.47381 18.0261 5.72386 18.2761C5.97391 18.5262 6.31305 18.6667 6.66667 18.6667H10.9933C11.1085 18.6665 11.2216 18.6365 11.3217 18.5796C11.4218 18.5227 11.5054 18.4409 11.5645 18.3421C11.6236 18.2433 11.656 18.1308 11.6587 18.0158C11.6615 17.9007 11.6343 17.7868 11.58 17.6853C10.5067 15.672 8.424 14.6667 5.33333 14.6667ZM26.6667 14.6667C23.5773 14.6667 21.4947 15.6733 20.4187 17.6853C20.3643 17.7869 20.3371 17.9009 20.3399 18.0161C20.3427 18.1313 20.3753 18.2438 20.4345 18.3427C20.4938 18.4415 20.5776 18.5233 20.6779 18.5801C20.7781 18.6369 20.8914 18.6667 21.0067 18.6667H25.3333C25.687 18.6667 26.0261 18.5262 26.2761 18.2761C26.5262 18.0261 26.6667 17.687 26.6667 17.3333V14.6667ZM8 2.66667L5.91867 8.912C5.85194 9.11234 5.83375 9.32566 5.86559 9.5344C5.89744 9.74314 5.9784 9.94134 6.10182 10.1127C6.22524 10.284 6.38759 10.4236 6.5755 10.5199C6.76341 10.6162 6.97151 10.6665 7.18267 10.6667H24.8173C25.0285 10.6665 25.2366 10.6162 25.4245 10.5199C25.6124 10.4236 25.7748 10.284 25.8982 10.1127C26.0216 9.94134 26.1026 9.74314 26.1344 9.5344C26.1663 9.32566 26.1481 9.11234 26.0813 8.912L24 2.66667H8Z" fill="#274985"/>
</svg>
