<svg width="28" height="24" viewBox="0 0 28 24" fill="none" xmlns="http://www.w3.org/2000/svg">
<path d="M4.66602 0H24.666C25.3733 0 26.0515 0.280951 26.5516 0.781048C27.0517 1.28115 27.3327 1.95942 27.3327 2.66667V6.66667C27.3327 7.37391 27.0517 8.05219 26.5516 8.55228C26.0515 9.05238 25.3733 9.33333 24.666 9.33333H21.9993V13.3333C21.9993 14.7478 21.4374 16.1044 20.4373 17.1046C19.4371 18.1048 18.0805 18.6667 16.666 18.6667H8.66602C7.25153 18.6667 5.89497 18.1048 4.89478 17.1046C3.89459 16.1044 3.33268 14.7478 3.33268 13.3333V1.33333C3.33268 0.979711 3.47316 0.640573 3.72321 0.390524C3.97326 0.140476 4.31239 0 4.66602 0ZM21.9993 2.66667V6.66667H24.666V2.66667H21.9993ZM0.666016 21.3333H24.666V24H0.666016V21.3333Z" fill="#274985"/>
</svg>
