<svg width="12" height="18" viewBox="0 0 12 18" fill="none" xmlns="http://www.w3.org/2000/svg">
<path d="M1.83268 2.33268V15.666H10.166V2.33268H1.83268ZM0.999349 0.666016H10.9994C11.2204 0.666016 11.4323 0.753813 11.5886 0.910093C11.7449 1.06637 11.8327 1.27834 11.8327 1.49935V16.4993C11.8327 16.7204 11.7449 16.9323 11.5886 17.0886C11.4323 17.2449 11.2204 17.3327 10.9994 17.3327H0.999349C0.778335 17.3327 0.566374 17.2449 0.410093 17.0886C0.253813 16.9323 0.166016 16.7204 0.166016 16.4993V1.49935C0.166016 1.27834 0.253813 1.06637 0.410093 0.910093C0.566374 0.753813 0.778335 0.666016 0.999349 0.666016ZM5.99935 13.166C6.22036 13.166 6.43232 13.2538 6.58861 13.4101C6.74489 13.5664 6.83268 13.7783 6.83268 13.9993C6.83268 14.2204 6.74489 14.4323 6.58861 14.5886C6.43232 14.7449 6.22036 14.8327 5.99935 14.8327C5.77834 14.8327 5.56637 14.7449 5.41009 14.5886C5.25381 14.4323 5.16602 14.2204 5.16602 13.9993C5.16602 13.7783 5.25381 13.5664 5.41009 13.4101C5.56637 13.2538 5.77834 13.166 5.99935 13.166V13.166Z" fill="#274985"/>
</svg>
