<svg width="18" height="22" viewBox="0 0 18 22" fill="none" xmlns="http://www.w3.org/2000/svg">
<path d="M15.364 15.5563L9 22L2.636 15.5563C1.37734 14.2819 0.520186 12.6581 0.172928 10.8905C-0.17433 9.12277 0.00390684 7.29051 0.685098 5.62539C1.36629 3.96027 2.51984 2.53707 3.99988 1.53576C5.47992 0.534448 7.21997 0 9 0C10.78 0 12.5201 0.534448 14.0001 1.53576C15.4802 2.53707 16.6337 3.96027 17.3149 5.62539C17.9961 7.29051 18.1743 9.12277 17.8271 10.8905C17.4798 12.6581 16.6227 14.2819 15.364 15.5563ZM9 13.1627C10.0609 13.1627 11.0783 12.736 11.8284 11.9765C12.5786 11.2169 13 10.1868 13 9.11262C13 8.03847 12.5786 7.00831 11.8284 6.24877C11.0783 5.48923 10.0609 5.06253 9 5.06253C7.93913 5.06253 6.92172 5.48923 6.17157 6.24877C5.42143 7.00831 5 8.03847 5 9.11262C5 10.1868 5.42143 11.2169 6.17157 11.9765C6.92172 12.736 7.93913 13.1627 9 13.1627ZM9 11.1377C8.46957 11.1377 7.96086 10.9243 7.58579 10.5445C7.21071 10.1648 7 9.64969 7 9.11262C7 8.57554 7.21071 8.06047 7.58579 7.6807C7.96086 7.30093 8.46957 7.08757 9 7.08757C9.53043 7.08757 10.0391 7.30093 10.4142 7.6807C10.7893 8.06047 11 8.57554 11 9.11262C11 9.64969 10.7893 10.1648 10.4142 10.5445C10.0391 10.9243 9.53043 11.1377 9 11.1377Z" fill="#E8B350"/>
</svg>
