<svg width="27" height="22" viewBox="0 0 27 22" fill="none" xmlns="http://www.w3.org/2000/svg">
<path d="M8.9987 13.6673H24.9987C25.3654 13.6673 25.6654 13.3673 25.6654 13.0007V2.33398C25.6654 1.96732 25.3654 1.66732 24.9987 1.66732H18.9987V7.00065L16.9987 5.66732L14.9987 7.00065V1.66732H8.9987C8.63203 1.66732 8.33203 1.96732 8.33203 2.33398V13.0007C8.33203 13.3673 8.63203 13.6673 8.9987 13.6673ZM26.332 16.334H5.66536V1.00065C5.66536 0.633984 5.36536 0.333984 4.9987 0.333984H0.998698C0.632031 0.333984 0.332031 0.633984 0.332031 1.00065V2.33398C0.332031 2.70065 0.632031 3.00065 0.998698 3.00065H2.9987V18.334C2.9987 18.7006 3.2987 19.0007 3.66536 19.0007H7.11953C7.04453 19.209 6.9987 19.434 6.9987 19.6673C6.9987 20.7715 7.89453 21.6673 8.9987 21.6673C10.1029 21.6673 10.9987 20.7715 10.9987 19.6673C10.9987 19.434 10.9487 19.209 10.8779 19.0007H19.1237C19.0487 19.209 19.0029 19.434 19.0029 19.6673C19.0029 20.7715 19.8987 21.6673 21.0029 21.6673C22.107 21.6673 23.0029 20.7715 23.0029 19.6673C23.0029 19.434 22.9529 19.209 22.882 19.0007H26.332C26.6987 19.0007 26.9987 18.7006 26.9987 18.334V17.0007C26.9987 16.634 26.6987 16.334 26.332 16.334Z" fill="#E8B350"/>
</svg>
