<svg width="26" height="29" viewBox="0 0 26 29" fill="none" xmlns="http://www.w3.org/2000/svg">
<path d="M13.6673 18.0033V28.334H0.333985C0.333571 26.7058 0.705879 25.0992 1.42238 23.6372C2.13889 22.1752 3.18057 20.8966 4.46761 19.8994C5.75465 18.9022 7.25289 18.2128 8.84752 17.8842C10.4422 17.5555 12.0909 17.5963 13.6673 18.0033V18.0033ZM11.0007 16.334C6.58065 16.334 3.00065 12.754 3.00065 8.33398C3.00065 3.91398 6.58065 0.333984 11.0007 0.333984C15.4207 0.333984 19.0006 3.91398 19.0006 8.33398C19.0006 12.754 15.4207 16.334 11.0007 16.334ZM19.0006 21.6673V17.0007L25.6673 23.0006L19.0006 29.0006V24.334H15.0007V21.6673H19.0006Z" fill="#274985"/>
</svg>
