<svg width="24" height="30" viewBox="0 0 24 30" fill="none" xmlns="http://www.w3.org/2000/svg">
<path d="M18.7787 19.0819C20.0325 17.7571 20.8707 16.0939 21.1896 14.2979C21.5085 12.5019 21.2941 10.6518 20.5729 8.97629C19.8518 7.3008 18.6555 5.87335 17.1318 4.87039C15.6082 3.86743 13.8241 3.33291 12 3.33291C10.1759 3.33291 8.39178 3.86743 6.86817 4.87039C5.34455 5.87335 4.14823 7.3008 3.42706 8.97629C2.7059 10.6518 2.49151 12.5019 2.8104 14.2979C3.12928 16.0939 3.96746 17.7571 5.22134 19.0819C5.94089 17.9337 6.94048 16.9872 8.12623 16.3314C9.31198 15.6755 10.645 15.3318 12 15.3326C13.355 15.3318 14.688 15.6755 15.8738 16.3314C17.0595 16.9872 18.0591 17.9337 18.7787 19.0819V19.0819ZM12 29.6366L3.51467 21.1512C1.83646 19.473 0.693582 17.3348 0.230571 15.007C-0.232439 12.6793 0.00520913 10.2665 0.913465 8.07378C1.82172 5.88107 3.35979 4.00694 5.33318 2.68837C7.30656 1.3698 9.62663 0.666016 12 0.666016C14.3734 0.666016 16.6934 1.3698 18.6668 2.68837C20.6402 4.00694 22.1783 5.88107 23.0865 8.07378C23.9948 10.2665 24.2324 12.6793 23.7694 15.007C23.3064 17.3348 22.1636 19.473 20.4853 21.1512L12 29.6366ZM12 13.9992C10.9391 13.9992 9.92172 13.5778 9.17158 12.8277C8.42143 12.0775 8 11.0601 8 9.99924C8 8.93838 8.42143 7.92096 9.17158 7.17082C9.92172 6.42067 10.9391 5.99924 12 5.99924C13.0609 5.99924 14.0783 6.42067 14.8284 7.17082C15.5786 7.92096 16 8.93838 16 9.99924C16 11.0601 15.5786 12.0775 14.8284 12.8277C14.0783 13.5778 13.0609 13.9992 12 13.9992Z" fill="#274985"/>
</svg>
