<svg width="1600" height="358" viewBox="0 0 1600 358" fill="none" xmlns="http://www.w3.org/2000/svg">
<path d="M192.585 216.282L23.2319 235.225C9.66143 236.734 0 242.767 0 249.71V343.138V358H1600L1600 241.192C1600.02 238.974 1599.04 236.778 1597.16 234.782L1436.33 64.0948C1427.38 54.5789 1402.06 52.6048 1387.71 60.3018L1372.35 68.5311C1356.46 77.0488 1328.04 73.522 1321.93 62.2981L1309.8 39.9613C1302.85 27.1848 1268.4 24.9888 1255.28 36.501L1103.98 169.28C1102.29 170.766 1100.11 172.097 1097.52 173.206L1005.77 212.644C993.217 218.035 974.294 217.28 963.656 210.959L823.687 127.911C811.316 120.569 788.462 120.924 777.046 128.665L652.935 212.689C642.141 219.987 620.864 220.785 608.026 214.375L525.56 173.161C511.878 166.307 488.979 167.727 479.029 176.023L415.997 228.682C409.445 234.138 396.652 236.911 384.214 235.58L205.355 216.26C201.158 215.816 196.782 215.816 192.585 216.282Z" fill="url(#paint0_radial_8063_30993)" fill-opacity="0.3"/>
<path d="M170.828 308.866L35.0052 296.594C16.7696 294.952 0 301.965 0 311.241V358H29.7189H1569.37H1600V261.908C1600.07 255.605 1592.18 249.969 1580.3 247.838L1525.84 238.096C1522.48 237.497 1519.37 236.587 1516.64 235.433L1401.1 186.455C1398.01 185.145 1395.48 183.525 1393.68 181.705L1361.67 149.283C1351.96 139.474 1325.09 138.076 1311.61 146.708L1218.12 206.472C1211.88 210.466 1201.95 212.597 1191.84 212.109L1111.17 208.203C1102.75 207.803 1094.38 209.202 1088.16 212.087L952.47 274.668C947.717 276.865 941.653 278.219 935.212 278.53L704.902 289.826C700.104 290.07 695.262 289.715 690.82 288.805L575.209 265.303C572.344 264.726 569.656 263.905 567.28 262.907L498.358 233.946C492.449 231.46 484.853 230.218 477.168 230.484L396.052 233.324C390.321 233.524 384.857 234.545 380.282 236.254L193.95 306.137C187.331 308.622 178.957 309.599 170.828 308.866Z" fill="url(#paint1_radial_8063_30993)" fill-opacity="0.45"/>
<path d="M204.912 262.99L51.4738 232.463C26.8046 227.544 0 236.652 0 249.947V358H37.5939H1985.23H2024V224.255C2024.08 217.003 2015.82 210.369 2002.79 207.193L1929.73 189.484C1921.08 187.376 1914.36 183.694 1910.96 179.168L1796.81 27.4614C1792.76 22.0925 1784.02 17.9323 1773.09 16.1614L1678.15 0.897985C1663.6 -1.4351 1647.64 0.86989 1637.83 6.74476L1426.12 133.546C1415.56 139.871 1398 142.035 1382.77 138.859L1294.4 120.363C1280.78 117.524 1265.07 118.929 1254.25 123.989L1038.27 224.958C1023.6 231.817 1000.76 231.704 986.375 224.677L777.193 122.612C761.318 114.882 735.609 115.641 721.701 124.27L642.355 173.434C630.554 180.77 609.79 182.597 593.719 177.734L520.891 155.781C506.899 151.564 489.085 152.351 476.779 157.72L243.517 259.673C232.896 264.311 218.005 265.576 204.912 262.99Z" fill="url(#paint2_radial_8063_30993)" fill-opacity="0.45"/>
<path d="M1121.59 236C1127.74 236 1133.94 236.861 1139.43 238.671L1400.29 324.448C1412.99 328.62 1429.83 327.826 1440.75 322.55L1551.23 269.066C1559.91 264.872 1572.59 263.437 1584.08 265.336L1600 267.984V358H0V348.111L83.577 352.526C86.7086 352.702 89.8624 352.636 92.9496 352.349L420.061 322.042C425.192 321.557 430.456 321.711 435.431 322.462L514.299 334.403C516.054 334.668 517.875 334.867 519.719 334.977L757.39 349.744C762.298 350.054 767.273 349.811 771.96 348.994L987.532 312.065C993.862 310.984 999.37 308.953 1003.28 306.238L1095.27 242.688C1101.58 238.318 1111.51 236 1121.59 236Z" fill="url(#paint3_radial_8063_30993)"/>
<defs>
<radialGradient id="paint0_radial_8063_30993" cx="0" cy="0" r="1" gradientUnits="userSpaceOnUse" gradientTransform="translate(799.989 195.476) scale(577.531 576.786)">
<stop stop-color="#FFDE00"/>
<stop offset="1" stop-color="#FBB03F"/>
</radialGradient>
<radialGradient id="paint1_radial_8063_30993" cx="0" cy="0" r="1" gradientUnits="userSpaceOnUse" gradientTransform="translate(799.989 250.803) scale(577.531 380.433)">
<stop stop-color="#FFDE00"/>
<stop offset="1" stop-color="#FBB03F"/>
</radialGradient>
<radialGradient id="paint2_radial_8063_30993" cx="0" cy="0" r="1" gradientUnits="userSpaceOnUse" gradientTransform="translate(1011.99 181.15) scale(730.577 627.627)">
<stop stop-color="#FFDE00"/>
<stop offset="1" stop-color="#FBB03F"/>
</radialGradient>
<radialGradient id="paint3_radial_8063_30993" cx="0" cy="0" r="1" gradientUnits="userSpaceOnUse" gradientTransform="translate(778.334 306.591) scale(618.709 614.9)">
<stop stop-color="#FFDE00"/>
<stop offset="1" stop-color="#FBB03F"/>
</radialGradient>
</defs>
</svg>
