<svg width="1600" height="611" viewBox="0 0 1600 611" fill="none" xmlns="http://www.w3.org/2000/svg">
<path d="M-793.7 338.99L-793.701 338.99L-1116.74 375.149C-1129.74 376.594 -1140.89 380.211 -1148.81 385.156C-1156.72 390.092 -1161.5 396.418 -1161.5 403.294V581.632V610V610.5H-1161H1891H1891.5V610L1891.5 387.04C1891.54 382.648 1889.61 378.338 1885.94 374.459C1885.94 374.458 1885.94 374.457 1885.94 374.456L1609.18 67.6545L1609.17 67.6471C1600.51 58.4298 1584.01 52.9295 1566.33 51.5499C1548.64 50.1689 1529.62 52.9042 1515.83 60.3088L1486.51 76.0169L1486.75 76.4576L1486.51 76.017C1471.48 84.0831 1450.47 86.464 1431.73 84.1437C1422.37 82.9842 1413.61 80.6537 1406.47 77.2914C1399.33 73.9257 1393.86 69.548 1391.02 64.3211L1367.89 21.6847L1367.45 21.9231L1367.89 21.6843C1364.49 15.4451 1357.78 10.5508 1349.31 7.05011C1340.83 3.54551 1330.54 1.41302 1319.89 0.735562C1298.62 -0.617245 1275.78 3.82536 1263.11 14.9381C1263.11 14.9395 1263.11 14.9409 1263.11 14.9422L944.522 279.383L944.516 279.388L944.51 279.393C941.346 282.181 937.254 284.69 932.351 286.787L757.374 332.059L757.337 332.069L757.301 332.084C745.417 337.192 730.486 339.398 715.99 338.818C701.49 338.238 687.482 334.873 677.428 328.896L677.173 329.325L677.428 328.895L410.438 170.373C398.534 163.303 381.635 159.96 365.007 160.226C348.382 160.491 331.931 164.366 320.934 171.829L84.1931 332.214C74.0033 339.108 58.8123 342.959 43.0845 343.55C27.3612 344.14 11.1818 341.469 -0.966797 335.399L-158.271 256.73C-171.42 250.139 -188.958 247.54 -205.573 248.565C-222.179 249.589 -237.966 254.241 -247.572 262.255L-247.572 262.256L-367.806 362.771C-373.972 367.91 -383.113 371.812 -393.695 374.109C-404.27 376.405 -416.248 377.091 -428.059 375.826L-769.231 338.948L-769.232 338.948C-777.274 338.097 -785.656 338.097 -793.7 338.99ZM410.183 170.803C386.585 156.788 342.99 157.466 321.214 172.242L84.4735 332.628C63.8837 346.558 23.2972 348.082 -1.19031 335.846L-158.495 257.177C-184.592 244.094 -228.272 246.804 -247.252 262.639L410.183 170.803Z" stroke="#274985"/>
<path d="M-1327.5 610V610.5H-1327H-1271.46H1605.76H1663H1663.5V610V430.663C1663.56 424.554 1659.77 418.849 1653.26 414.201C1646.73 409.549 1637.42 405.903 1626.27 403.906L1626.18 404.398L1626.27 403.906L1524.49 385.723C1518.26 384.611 1512.48 382.922 1507.42 380.785L1291.49 289.374C1285.77 286.948 1281.1 283.957 1277.79 280.619L1217.98 220.107L1217.98 220.107C1208.78 210.822 1191.53 205.579 1173.52 204.65C1155.48 203.72 1136.51 207.101 1123.8 215.233L949.09 326.773L949.359 327.194L949.09 326.773C937.541 334.155 919.099 338.123 900.28 337.215L749.524 329.925L749.5 330.425L749.524 329.925C733.732 329.177 718 331.794 706.289 337.219C706.289 337.219 706.289 337.219 706.288 337.219L452.719 454.019L452.929 454.473L452.719 454.019C443.907 458.087 432.641 460.603 420.653 461.181L420.677 461.68L420.653 461.181L-9.7395 482.263C-18.666 482.716 -27.6724 482.056 -35.9307 480.367L-36.0309 480.857L-35.9314 480.367L-251.979 436.505L-252.078 436.995L-251.979 436.505C-257.304 435.434 -262.294 433.91 -266.703 432.06L-395.501 378.009C-406.62 373.337 -420.89 371.01 -435.31 371.509L-586.896 376.811C-597.65 377.185 -607.915 379.099 -616.523 382.309L-616.524 382.31L-964.731 512.737L-964.556 513.205L-964.731 512.737C-977.019 517.345 -992.591 519.162 -1007.72 517.801L-1261.54 494.897C-1278.65 493.358 -1295.08 495.871 -1307.26 500.96C-1319.4 506.029 -1327.5 513.75 -1327.5 522.731V610Z" stroke="#274985"/>
<path d="M1683.5 610V409.763C1683.56 404.127 1680.39 398.797 1674.8 394.306C1669.21 389.812 1661.16 386.114 1651.35 383.725L1651.23 384.211L1651.35 383.725L1541.95 357.211C1529.04 354.067 1519.12 348.594 1514.13 341.951L1343.17 114.815L1342.77 115.115L1343.17 114.814C1337 106.624 1323.76 100.363 1307.34 97.7034L1307.26 98.197L1307.34 97.7033L1165.16 74.8508L1165.16 74.8508C1143.29 71.3446 1119.26 74.7971 1104.45 83.6694L1104.44 83.6751L1104.43 83.6814L787.403 293.517C787.4 293.519 787.397 293.521 787.395 293.522C771.707 302.908 745.55 306.147 722.839 301.411L590.51 273.719L590.407 274.208L590.509 273.719C570.02 269.451 546.393 271.555 530.08 279.179C530.076 279.181 530.072 279.183 530.068 279.184L206.653 410.346L206.641 410.35L206.629 410.356C195.73 415.452 181.765 417.968 167.828 417.895C153.891 417.821 140.032 415.158 129.345 409.939L129.126 410.388L129.345 409.939L-183.912 257.126L-184.131 257.575L-183.912 257.126C-195.89 251.294 -211.543 248.678 -226.801 249.132C-242.055 249.586 -256.982 253.112 -267.495 259.633L-386.318 333.241L-386.319 333.241C-395.068 338.68 -407.176 342.094 -420.117 343.237C-433.053 344.379 -446.779 343.246 -458.744 339.626L-458.744 339.626L-567.806 306.757C-588.862 300.414 -615.662 301.592 -634.209 309.682L-634.009 310.14L-634.21 309.682L-983.526 462.326C-999.323 469.224 -1021.52 471.115 -1041.04 467.26L-1270.82 421.555C-1289.37 417.856 -1308.73 419.428 -1323.47 424.434C-1330.84 426.937 -1337.08 430.307 -1341.49 434.33C-1345.9 438.355 -1348.5 443.064 -1348.5 448.223V610V610.5H-1348H-1291.7H1624.93H1683H1683.5V610Z" stroke="#274985"/>
<path d="M2587.22 388.673L2587.43 389.123L2587.21 388.673L2311.86 521.506C2284.75 534.546 2242.92 536.521 2211.37 526.196L1561.18 313.158C1547.45 308.644 1531.95 306.5 1516.57 306.5C1491.38 306.5 1466.52 312.266 1450.69 323.199L1221.39 481.031L1221.67 481.443L1221.39 481.032C1211.72 487.719 1198.08 492.742 1182.35 495.421C1182.35 495.422 1182.34 495.422 1182.34 495.423L673.438 558.504L673.426 558.505L673.414 558.507C667.595 559.518 635.676 563.208 603.656 566.551C587.652 568.222 571.632 569.806 558.85 570.923C552.459 571.482 546.88 571.925 542.517 572.203C538.142 572.482 535.023 572.595 533.531 572.501L533.52 572.5L16.4281 552.322C16.4264 552.322 16.4248 552.322 16.4231 552.321C11.8458 552.048 7.32312 551.557 2.96533 550.901L-193.614 521.243L-193.689 521.737L-193.614 521.242C-206.055 519.373 -219.216 518.988 -232.044 520.197L-1047.37 595.468L-1047.32 595.966L-1047.37 595.468C-1055.04 596.178 -1062.88 596.342 -1070.66 595.905L-1070.66 595.905L-1278.97 584.941L-1279.5 584.913V585.44V610V610.5H-1279H2709H2709.5V610V386.437V386.013L2709.08 385.943L2669.39 379.365L2669.31 379.858L2669.39 379.365C2640.69 374.637 2608.97 378.203 2587.22 388.673Z" stroke="#274985"/>
</svg>
