<svg width="18" height="18" viewBox="0 0 18 18" fill="none" xmlns="http://www.w3.org/2000/svg">
<path d="M14.9531 4.88936L13.5416 6.31436V2.925H7.19009V6.4875H3.66147V14.325H13.5416V12.3606L14.9531 10.9356V15.0432C14.9529 15.2307 14.879 15.4105 14.7475 15.543C14.6161 15.6756 14.438 15.75 14.2523 15.75H2.9508C2.85812 15.7493 2.76648 15.7303 2.68111 15.6939C2.59573 15.6574 2.5183 15.6044 2.45322 15.5378C2.38815 15.4712 2.33671 15.3923 2.30184 15.3056C2.26698 15.2189 2.24937 15.1261 2.25002 15.0325V5.775L6.48648 1.5H14.2459C14.6355 1.5 14.9531 1.82419 14.9531 2.2068V4.88936ZM15.5021 6.34999L16.5 7.35817L11.0109 12.9L10.0116 12.8986L10.013 11.8925L15.5021 6.3507V6.34999Z" fill="#274985"/>
</svg>
