<svg width="19" height="18" viewBox="0 0 19 18" fill="none" xmlns="http://www.w3.org/2000/svg">
<path d="M9.66406 1.5C9.86297 1.5 10.0537 1.57902 10.1944 1.71967C10.335 1.86032 10.4141 2.05109 10.4141 2.25V4.5C10.4141 4.69891 10.335 4.88968 10.1944 5.03033C10.0537 5.17098 9.86297 5.25 9.66406 5.25C9.46515 5.25 9.27438 5.17098 9.13373 5.03033C8.99308 4.88968 8.91406 4.69891 8.91406 4.5V2.25C8.91406 2.05109 8.99308 1.86032 9.13373 1.71967C9.27438 1.57902 9.46515 1.5 9.66406 1.5ZM9.66406 12.75C9.86297 12.75 10.0537 12.829 10.1944 12.9697C10.335 13.1103 10.4141 13.3011 10.4141 13.5V15.75C10.4141 15.9489 10.335 16.1397 10.1944 16.2803C10.0537 16.421 9.86297 16.5 9.66406 16.5C9.46515 16.5 9.27438 16.421 9.13373 16.2803C8.99308 16.1397 8.91406 15.9489 8.91406 15.75V13.5C8.91406 13.3011 8.99308 13.1103 9.13373 12.9697C9.27438 12.829 9.46515 12.75 9.66406 12.75ZM17.1641 9C17.1641 9.19891 17.085 9.38968 16.9444 9.53033C16.8037 9.67098 16.613 9.75 16.4141 9.75H14.1641C13.9651 9.75 13.7744 9.67098 13.6337 9.53033C13.4931 9.38968 13.4141 9.19891 13.4141 9C13.4141 8.80109 13.4931 8.61032 13.6337 8.46967C13.7744 8.32902 13.9651 8.25 14.1641 8.25H16.4141C16.613 8.25 16.8037 8.32902 16.9444 8.46967C17.085 8.61032 17.1641 8.80109 17.1641 9ZM5.91406 9C5.91406 9.19891 5.83504 9.38968 5.69439 9.53033C5.55374 9.67098 5.36297 9.75 5.16406 9.75H2.91406C2.71515 9.75 2.52438 9.67098 2.38373 9.53033C2.24308 9.38968 2.16406 9.19891 2.16406 9C2.16406 8.80109 2.24308 8.61032 2.38373 8.46967C2.52438 8.32902 2.71515 8.25 2.91406 8.25H5.16406C5.36297 8.25 5.55374 8.32902 5.69439 8.46967C5.83504 8.61032 5.91406 8.80109 5.91406 9ZM14.9673 14.3032C14.8267 14.4439 14.6359 14.5228 14.4371 14.5228C14.2382 14.5228 14.0475 14.4439 13.9068 14.3032L12.3161 12.7125C12.1794 12.571 12.1038 12.3816 12.1056 12.1849C12.1073 11.9883 12.1861 11.8002 12.3252 11.6611C12.4643 11.5221 12.6524 11.4432 12.849 11.4415C13.0457 11.4398 13.2351 11.5154 13.3766 11.652L14.9673 13.242C15.037 13.3117 15.0924 13.3944 15.1301 13.4854C15.1679 13.5765 15.1873 13.6741 15.1873 13.7726C15.1873 13.8712 15.1679 13.9688 15.1301 14.0598C15.0924 14.1509 15.037 14.2336 14.9673 14.3032ZM7.01206 6.348C6.87142 6.4886 6.68069 6.56759 6.48181 6.56759C6.28294 6.56759 6.09221 6.4886 5.95156 6.348L4.36156 4.758C4.22083 4.61737 4.14173 4.42659 4.14166 4.22764C4.14159 4.02869 4.22056 3.83786 4.36119 3.69712C4.50182 3.55639 4.69259 3.47729 4.89155 3.47722C5.0905 3.47715 5.28133 3.55612 5.42206 3.69675L7.01206 5.2875C7.15267 5.42815 7.23165 5.61888 7.23165 5.81775C7.23165 6.01662 7.15267 6.20735 7.01206 6.348ZM4.36156 14.3032C4.22096 14.1626 4.14197 13.9719 4.14197 13.773C4.14197 13.5741 4.22096 13.3834 4.36156 13.2428L5.95231 11.652C6.0215 11.5804 6.10426 11.5232 6.19576 11.4839C6.28726 11.4446 6.38568 11.4239 6.48526 11.4231C6.58485 11.4222 6.68361 11.4412 6.77578 11.4789C6.86795 11.5166 6.95169 11.5723 7.02211 11.6427C7.09253 11.7131 7.14822 11.7969 7.18593 11.889C7.22364 11.9812 7.24262 12.08 7.24175 12.1796C7.24088 12.2791 7.2202 12.3776 7.18089 12.4691C7.14158 12.5606 7.08445 12.6433 7.01281 12.7125L5.42281 14.3032C5.35316 14.373 5.27044 14.4283 5.17939 14.466C5.08834 14.5038 4.99075 14.5232 4.89219 14.5232C4.79363 14.5232 4.69603 14.5038 4.60498 14.466C4.51393 14.4283 4.43122 14.373 4.36156 14.3032ZM12.3161 6.348C12.1755 6.20735 12.0965 6.01662 12.0965 5.81775C12.0965 5.61888 12.1755 5.42815 12.3161 5.2875L13.9061 3.69675C14.0467 3.55602 14.2375 3.47692 14.4364 3.47685C14.6354 3.47678 14.8262 3.55574 14.9669 3.69638C15.1077 3.83701 15.1868 4.02778 15.1868 4.22673C15.1869 4.42569 15.1079 4.61652 14.9673 4.75725L13.3766 6.348C13.2359 6.4886 13.0452 6.56759 12.8463 6.56759C12.6474 6.56759 12.4567 6.4886 12.3161 6.348Z" fill="#274985"/>
</svg>
