<svg width="20" height="20" viewBox="0 0 20 20" fill="none" xmlns="http://www.w3.org/2000/svg">
<path d="M2.5013 8.33334H1.66797V3.33583C1.66797 2.87417 2.04714 2.5 2.49464 2.5H17.508C17.6174 2.49977 17.7257 2.5213 17.8267 2.56334C17.9277 2.60538 18.0194 2.66708 18.0963 2.74486C18.1732 2.82264 18.2339 2.91495 18.2748 3.01641C18.3157 3.11786 18.3361 3.22645 18.3346 3.33583V8.33334H17.5013V16.6675C17.5016 16.7765 17.4805 16.8845 17.4391 16.9853C17.3977 17.0861 17.3368 17.1778 17.26 17.2551C17.1831 17.3324 17.0918 17.3939 16.9912 17.4359C16.8907 17.4779 16.7828 17.4997 16.6738 17.5H3.3288C3.2198 17.4997 3.11194 17.4779 3.01136 17.4359C2.91079 17.3939 2.81948 17.3324 2.74263 17.2551C2.66579 17.1778 2.60493 17.0861 2.56352 16.9853C2.52212 16.8845 2.50097 16.7765 2.5013 16.6675V8.33334ZM15.8346 8.33334H4.16797V15.8333H15.8346V8.33334ZM3.33464 4.16667V6.66667H16.668V4.16667H3.33464ZM7.5013 10H12.5013V11.6667H7.5013V10Z" fill="#8C8C8C"/>
</svg>
