<svg width="24" height="24" viewBox="0 0 24 24" fill="none" xmlns="http://www.w3.org/2000/svg">
<path d="M16.5 4.8H20.1C20.3387 4.8 20.5676 4.89482 20.7364 5.0636C20.9052 5.23239 21 5.46131 21 5.7V20.1C21 20.3387 20.9052 20.5676 20.7364 20.7364C20.5676 20.9052 20.3387 21 20.1 21H3.9C3.66131 21 3.43239 20.9052 3.2636 20.7364C3.09482 20.5676 3 20.3387 3 20.1V5.7C3 5.46131 3.09482 5.23239 3.2636 5.0636C3.43239 4.89482 3.66131 4.8 3.9 4.8H7.5V3H9.3V4.8H14.7V3H16.5V4.8ZM14.7 6.6H9.3V8.4H7.5V6.6H4.8V10.2H19.2V6.6H16.5V8.4H14.7V6.6ZM19.2 12H4.8V19.2H19.2V12Z" fill="#274985"/>
</svg>
