<svg width="18" height="18" viewBox="0 0 18 18" fill="none" xmlns="http://www.w3.org/2000/svg">
<path d="M12.375 4.95H15.75V6.3H14.4V15.075C14.4 15.254 14.3289 15.4257 14.2023 15.5523C14.0757 15.6789 13.904 15.75 13.725 15.75H4.275C4.09598 15.75 3.92429 15.6789 3.7977 15.5523C3.67112 15.4257 3.6 15.254 3.6 15.075V6.3H2.25V4.95H5.625V2.925C5.625 2.74598 5.69612 2.57429 5.8227 2.4477C5.94929 2.32112 6.12098 2.25 6.3 2.25H11.7C11.879 2.25 12.0507 2.32112 12.1773 2.4477C12.3039 2.57429 12.375 2.74598 12.375 2.925V4.95ZM13.05 6.3H4.95V14.4H13.05V6.3ZM6.975 3.6V4.95H11.025V3.6H6.975Z" fill="#FF4D5A"/>
</svg>
