<svg width="20" height="20" viewBox="0 0 20 20" fill="none" xmlns="http://www.w3.org/2000/svg">
<path d="M2.78375 14.1665C2.43148 13.5573 2.15764 12.9061 1.96875 12.2282C2.37984 12.0191 2.72508 11.7004 2.96627 11.3073C3.20747 10.9142 3.33522 10.462 3.33539 10.0008C3.33557 9.53957 3.20815 9.08731 2.96725 8.69402C2.72635 8.30073 2.38135 7.98174 1.97042 7.77235C2.34711 6.41026 3.06436 5.16648 4.05458 4.15819C4.44133 4.40962 4.8901 4.54915 5.35123 4.56134C5.81236 4.57352 6.26788 4.45788 6.66736 4.22721C7.06684 3.99655 7.39471 3.65985 7.61469 3.25439C7.83467 2.84892 7.93817 2.3905 7.91375 1.92985C9.28217 1.5762 10.7181 1.57678 12.0863 1.93152C12.062 2.39216 12.1658 2.85051 12.3859 3.25586C12.606 3.66121 12.934 3.99775 13.3336 4.22824C13.7332 4.45872 14.1887 4.57418 14.6498 4.56181C15.1109 4.54945 15.5596 4.40975 15.9462 4.15819C16.4288 4.64985 16.8571 5.20902 17.2171 5.83319C17.5779 6.45735 17.8479 7.10819 18.0321 7.77152C17.621 7.9806 17.2758 8.29933 17.0346 8.69244C16.7934 9.08555 16.6656 9.53772 16.6654 9.99892C16.6653 10.4601 16.7927 10.9124 17.0336 11.3057C17.2745 11.699 17.6195 12.018 18.0304 12.2274C17.6537 13.5894 16.9365 14.8332 15.9462 15.8415C15.5595 15.5901 15.1107 15.4506 14.6496 15.4384C14.1885 15.4262 13.733 15.5418 13.3335 15.7725C12.934 16.0032 12.6061 16.3399 12.3861 16.7453C12.1662 17.1508 12.0627 17.6092 12.0871 18.0699C10.7187 18.4235 9.28272 18.4229 7.91458 18.0682C7.93879 17.6075 7.83508 17.1492 7.61493 16.7438C7.39479 16.3385 7.06679 16.002 6.66723 15.7715C6.26767 15.541 5.81213 15.4255 5.35102 15.4379C4.88991 15.4503 4.44122 15.59 4.05458 15.8415C3.56208 15.339 3.13508 14.7762 2.78375 14.1665ZM7.50042 14.3299C8.38844 14.842 9.05612 15.664 9.37542 16.6382C9.79125 16.6774 10.2087 16.6782 10.6246 16.639C10.9441 15.6647 11.6121 14.8427 12.5004 14.3307C13.3881 13.8171 14.4342 13.6494 15.4379 13.8599C15.6796 13.5199 15.8879 13.1574 16.0613 12.7782C15.3774 12.0144 14.9997 11.025 15.0004 9.99985C15.0004 8.94985 15.3921 7.96902 16.0613 7.22152C15.8867 6.84248 15.6775 6.48038 15.4363 6.13985C14.4332 6.35011 13.3877 6.18275 12.5004 5.66985C11.6124 5.15766 10.9447 4.33567 10.6254 3.36152C10.2096 3.32235 9.79208 3.32152 9.37625 3.36069C9.05675 4.33497 8.38875 5.15699 7.50042 5.66902C6.61274 6.18261 5.56665 6.35029 4.56292 6.13985C4.32172 6.48009 4.11303 6.84224 3.93958 7.22152C4.62339 7.98532 5.00115 8.97468 5.00042 9.99985C5.00042 11.0499 4.60875 12.0307 3.93958 12.7782C4.11414 13.1572 4.32337 13.5193 4.56458 13.8599C5.56768 13.6496 6.61309 13.817 7.50042 14.3299ZM10.0004 12.4999C9.33738 12.4999 8.70149 12.2365 8.23265 11.7676C7.76381 11.2988 7.50042 10.6629 7.50042 9.99985C7.50042 9.33681 7.76381 8.70093 8.23265 8.23209C8.70149 7.76324 9.33738 7.49985 10.0004 7.49985C10.6635 7.49985 11.2993 7.76324 11.7682 8.23209C12.237 8.70093 12.5004 9.33681 12.5004 9.99985C12.5004 10.6629 12.237 11.2988 11.7682 11.7676C11.2993 12.2365 10.6635 12.4999 10.0004 12.4999ZM10.0004 10.8332C10.2214 10.8332 10.4334 10.7454 10.5897 10.5891C10.746 10.4328 10.8337 10.2209 10.8337 9.99985C10.8337 9.77884 10.746 9.56688 10.5897 9.4106C10.4334 9.25432 10.2214 9.16652 10.0004 9.16652C9.7794 9.16652 9.56744 9.25432 9.41116 9.4106C9.25488 9.56688 9.16708 9.77884 9.16708 9.99985C9.16708 10.2209 9.25488 10.4328 9.41116 10.5891C9.56744 10.7454 9.7794 10.8332 10.0004 10.8332Z" fill="#8C8C8C"/>
</svg>
