<svg width="25" height="24" viewBox="0 0 25 24" fill="none" xmlns="http://www.w3.org/2000/svg">
<path d="M5.82992 3.27087C6.45397 3.04825 7.12839 3.00733 7.77478 3.15287C8.42116 3.29842 9.01296 3.62445 9.48136 4.09306C9.94977 4.56168 10.2755 5.15362 10.4208 5.80007C10.566 6.44652 10.5248 7.12092 10.3019 7.74487L21.1469 18.5899L19.0249 20.7109L8.17992 9.86687C7.55587 10.0895 6.88145 10.1304 6.23506 9.98487C5.58868 9.83932 4.99688 9.51329 4.52848 9.04468C4.06008 8.57607 3.73431 7.98413 3.58905 7.33768C3.4438 6.69122 3.48502 6.01682 3.70792 5.39287L5.94392 7.62987C6.08229 7.77314 6.24781 7.88741 6.43081 7.96602C6.61382 8.04464 6.81065 8.08602 7.00982 8.08775C7.20899 8.08948 7.40651 8.05153 7.59085 7.9761C7.7752 7.90068 7.94267 7.7893 8.08351 7.64846C8.22435 7.50763 8.33573 7.34015 8.41115 7.1558C8.48658 6.97146 8.52453 6.77394 8.5228 6.57477C8.52107 6.3756 8.47969 6.17877 8.40107 5.99576C8.32246 5.81276 8.20819 5.64724 8.06492 5.50887L5.82892 3.26987L5.82992 3.27087ZM16.1969 5.15487L19.3789 3.38687L20.7929 4.80087L19.0249 7.98287L17.2569 8.33687L15.1369 10.4579L13.7219 9.04387L15.8429 6.92287L16.1969 5.15487ZM9.12592 12.9329L11.2469 15.0549L6.29692 20.0049C6.02396 20.2753 5.65764 20.4306 5.2735 20.4389C4.88937 20.4471 4.51671 20.3077 4.23237 20.0493C3.94804 19.7908 3.77372 19.4332 3.74535 19.05C3.71699 18.6668 3.83674 18.2873 4.07992 17.9899L4.17692 17.8829L9.12692 12.9329H9.12592Z" fill="#274985"/>
</svg>
