<svg width="20" height="20" viewBox="0 0 20 20" fill="none" xmlns="http://www.w3.org/2000/svg">
<path d="M4.16927 18.3337C3.94826 18.3337 3.7363 18.2459 3.58002 18.0896C3.42374 17.9333 3.33594 17.7213 3.33594 17.5003V2.50033C3.33594 2.27931 3.42374 2.06735 3.58002 1.91107C3.7363 1.75479 3.94826 1.66699 4.16927 1.66699H15.8359C16.057 1.66699 16.2689 1.75479 16.4252 1.91107C16.5815 2.06735 16.6693 2.27931 16.6693 2.50033V5.00033H15.0026V3.33366H5.0026V16.667H15.0026V15.0003H16.6693V17.5003C16.6693 17.7213 16.5815 17.9333 16.4252 18.0896C16.2689 18.2459 16.057 18.3337 15.8359 18.3337H4.16927ZM15.0026 13.3337V10.8337H9.16927V9.16699H15.0026V6.66699L19.1693 10.0003L15.0026 13.3337Z" fill="#8C8C8C"/>
</svg>
