<svg width="18" height="18" viewBox="0 0 18 18" fill="none" xmlns="http://www.w3.org/2000/svg">
<path d="M12.375 3.6H15.075C15.254 3.6 15.4257 3.67112 15.5523 3.7977C15.6789 3.92429 15.75 4.09598 15.75 4.275V15.075C15.75 15.254 15.6789 15.4257 15.5523 15.5523C15.4257 15.6789 15.254 15.75 15.075 15.75H2.925C2.74598 15.75 2.57429 15.6789 2.4477 15.5523C2.32112 15.4257 2.25 15.254 2.25 15.075V4.275C2.25 4.09598 2.32112 3.92429 2.4477 3.7977C2.57429 3.67112 2.74598 3.6 2.925 3.6H5.625V2.25H6.975V3.6H11.025V2.25H12.375V3.6ZM11.025 4.95H6.975V6.3H5.625V4.95H3.6V7.65H14.4V4.95H12.375V6.3H11.025V4.95ZM14.4 9H3.6V14.4H14.4V9Z" fill="#8C8C8C"/>
</svg>
