<svg width="20" height="20" viewBox="0 0 20 20" fill="none" xmlns="http://www.w3.org/2000/svg">
<path d="M13.7513 2.5C16.283 2.5 18.3346 4.58333 18.3346 7.5C18.3346 13.3333 12.0846 16.6667 10.0013 17.9167C7.91797 16.6667 1.66797 13.3333 1.66797 7.5C1.66797 4.58333 3.7513 2.5 6.2513 2.5C7.8013 2.5 9.16797 3.33333 10.0013 4.16667C10.8346 3.33333 12.2013 2.5 13.7513 2.5ZM10.7796 15.5033C11.5138 15.04 12.1763 14.5792 12.7963 14.0858C15.2805 12.1108 16.668 9.9525 16.668 7.5C16.668 5.53333 15.3871 4.16667 13.7513 4.16667C12.8546 4.16667 11.8846 4.64167 11.1796 5.345L10.0013 6.52333L8.82297 5.345C8.11797 4.64167 7.14797 4.16667 6.2513 4.16667C4.63464 4.16667 3.33464 5.54667 3.33464 7.5C3.33464 9.95333 4.72297 12.1108 7.20547 14.0858C7.8263 14.5792 8.4888 15.04 9.22297 15.5025C9.47214 15.66 9.7188 15.8108 10.0013 15.9792C10.2838 15.8108 10.5305 15.66 10.7796 15.5033Z" fill="#1E1E1E"/>
</svg>
