<svg width="20" height="20" viewBox="0 0 20 20" fill="none" xmlns="http://www.w3.org/2000/svg">
<path d="M10 0.833984L16.8475 2.35565C17.2283 2.44065 17.5 2.77815 17.5 3.16898V11.4915C17.5 13.1631 16.6642 14.7248 15.2733 15.6515L10 19.1673L4.72667 15.6515C3.335 14.724 2.5 13.1631 2.5 11.4923V3.16898C2.5 2.77815 2.77167 2.44065 3.1525 2.35565L10 0.833984ZM10 2.54148L4.16667 3.83732V11.4915C4.16667 12.6056 4.72333 13.6465 5.65083 14.2648L10 17.1648L14.3492 14.2648C15.2767 13.6465 15.8333 12.6065 15.8333 11.4923V3.83732L10 2.54232V2.54148ZM13.71 6.85232L14.8892 8.03065L9.58583 13.334L6.05 9.79815L7.22833 8.61982L9.585 10.9765L13.71 6.85148V6.85232Z" fill="#52C41A"/>
</svg>
