<svg width="20" height="20" viewBox="0 0 20 20" fill="none" xmlns="http://www.w3.org/2000/svg">
<path d="M4.43835 2.72621C4.95839 2.54069 5.5204 2.50659 6.05906 2.62788C6.59771 2.74917 7.09088 3.02086 7.48121 3.41137C7.87155 3.80188 8.14302 4.29517 8.26407 4.83388C8.38512 5.37259 8.35077 5.93459 8.16501 6.45455L17.2025 15.492L15.4342 17.2595L6.39668 8.22288C5.87664 8.4084 5.31462 8.4425 4.77597 8.32121C4.23731 8.19992 3.74415 7.92823 3.35381 7.53772C2.96348 7.14721 2.692 6.65393 2.57096 6.11522C2.44991 5.57651 2.48426 5.01451 2.67001 4.49455L4.53335 6.35871C4.64865 6.4781 4.78659 6.57333 4.93909 6.63884C5.0916 6.70435 5.25562 6.73884 5.42159 6.74028C5.58757 6.74172 5.75217 6.71009 5.90579 6.64724C6.05941 6.58439 6.19897 6.49157 6.31634 6.37421C6.43371 6.25684 6.52652 6.11728 6.58937 5.96366C6.65222 5.81004 6.68385 5.64544 6.68241 5.47946C6.68097 5.31349 6.64648 5.14946 6.58097 4.99696C6.51546 4.84445 6.42023 4.70652 6.30085 4.59121L4.43751 2.72538L4.43835 2.72621ZM13.0775 4.29621L15.7292 2.82288L16.9075 4.00121L15.4342 6.65288L13.9608 6.94788L12.1942 8.71538L11.015 7.53705L12.7825 5.76955L13.0775 4.29621ZM7.18501 10.7779L8.95251 12.5462L4.82751 16.6712C4.60004 16.8966 4.29478 17.026 3.97466 17.0329C3.65455 17.0398 3.344 16.9236 3.10706 16.7082C2.87011 16.4929 2.72484 16.1948 2.70121 15.8755C2.67757 15.5562 2.77736 15.2399 2.98001 14.992L3.06085 14.9029L7.18585 10.7779H7.18501Z" fill="#8C8C8C"/>
</svg>
