<svg width="18" height="18" viewBox="0 0 18 18" fill="none" xmlns="http://www.w3.org/2000/svg">
<path d="M5.82143 14.9562L2.25001 15.75L3.04381 12.1786C2.52104 11.2008 2.24834 10.1088 2.25001 9C2.25001 5.27197 5.27198 2.25 9 2.25C12.728 2.25 15.75 5.27197 15.75 9C15.75 12.728 12.728 15.75 9 15.75C7.89122 15.7517 6.79925 15.479 5.82143 14.9562ZM6.01718 13.5299L6.45796 13.7662C7.23998 14.1841 8.11332 14.4018 9 14.4C10.068 14.4 11.1121 14.0833 12.0001 13.4899C12.8881 12.8966 13.5802 12.0532 13.989 11.0665C14.3977 10.0798 14.5046 8.99401 14.2962 7.94651C14.0879 6.89901 13.5736 5.93682 12.8184 5.18162C12.0632 4.42642 11.101 3.91212 10.0535 3.70376C9.00599 3.4954 7.92024 3.60234 6.93351 4.01105C5.94679 4.41976 5.10343 5.11189 4.51007 5.99992C3.91671 6.88794 3.60001 7.93198 3.60001 9C3.60001 9.90045 3.81938 10.7671 4.23451 11.542L4.47008 11.9828L4.02796 13.972L6.01718 13.5299Z" fill="#8C8C8C"/>
</svg>
