<svg width="20" height="20" viewBox="0 0 20 20" fill="none" xmlns="http://www.w3.org/2000/svg">
<path d="M10.0013 1.66602C10.2223 1.66602 10.4343 1.75381 10.5906 1.91009C10.7468 2.06637 10.8346 2.27834 10.8346 2.49935V4.99935C10.8346 5.22036 10.7468 5.43232 10.5906 5.5886C10.4343 5.74488 10.2223 5.83268 10.0013 5.83268C9.78029 5.83268 9.56833 5.74488 9.41205 5.5886C9.25577 5.43232 9.16797 5.22036 9.16797 4.99935V2.49935C9.16797 2.27834 9.25577 2.06637 9.41205 1.91009C9.56833 1.75381 9.78029 1.66602 10.0013 1.66602ZM10.0013 14.166C10.2223 14.166 10.4343 14.2538 10.5906 14.4101C10.7468 14.5664 10.8346 14.7783 10.8346 14.9993V17.4993C10.8346 17.7204 10.7468 17.9323 10.5906 18.0886C10.4343 18.2449 10.2223 18.3327 10.0013 18.3327C9.78029 18.3327 9.56833 18.2449 9.41205 18.0886C9.25577 17.9323 9.16797 17.7204 9.16797 17.4993V14.9993C9.16797 14.7783 9.25577 14.5664 9.41205 14.4101C9.56833 14.2538 9.78029 14.166 10.0013 14.166ZM18.3346 9.99935C18.3346 10.2204 18.2468 10.4323 18.0906 10.5886C17.9343 10.7449 17.7223 10.8327 17.5013 10.8327H15.0013C14.7803 10.8327 14.5683 10.7449 14.412 10.5886C14.2558 10.4323 14.168 10.2204 14.168 9.99935C14.168 9.77834 14.2558 9.56637 14.412 9.41009C14.5683 9.25381 14.7803 9.16602 15.0013 9.16602H17.5013C17.7223 9.16602 17.9343 9.25381 18.0906 9.41009C18.2468 9.56637 18.3346 9.77834 18.3346 9.99935ZM5.83464 9.99935C5.83464 10.2204 5.74684 10.4323 5.59056 10.5886C5.43428 10.7449 5.22232 10.8327 5.0013 10.8327H2.5013C2.28029 10.8327 2.06833 10.7449 1.91205 10.5886C1.75577 10.4323 1.66797 10.2204 1.66797 9.99935C1.66797 9.77834 1.75577 9.56637 1.91205 9.41009C2.06833 9.25381 2.28029 9.16602 2.5013 9.16602H5.0013C5.22232 9.16602 5.43428 9.25381 5.59056 9.41009C5.74684 9.56637 5.83464 9.77834 5.83464 9.99935ZM15.8938 15.8918C15.7375 16.0481 15.5256 16.1358 15.3046 16.1358C15.0837 16.1358 14.8717 16.0481 14.7155 15.8918L12.948 14.1244C12.7962 13.9672 12.7122 13.7567 12.7141 13.5382C12.716 13.3197 12.8036 13.1107 12.9581 12.9562C13.1126 12.8017 13.3216 12.714 13.5401 12.7121C13.7586 12.7102 13.9691 12.7942 14.1263 12.946L15.8938 14.7127C15.9713 14.7901 16.0327 14.882 16.0747 14.9831C16.1166 15.0843 16.1382 15.1928 16.1382 15.3023C16.1382 15.4118 16.1166 15.5202 16.0747 15.6214C16.0327 15.7225 15.9713 15.8145 15.8938 15.8918ZM7.05464 7.05268C6.89836 7.20891 6.68644 7.29667 6.46547 7.29667C6.2445 7.29667 6.03258 7.20891 5.8763 7.05268L4.10964 5.28602C3.95327 5.12976 3.86538 4.91779 3.8653 4.69673C3.86522 4.47567 3.95296 4.26363 4.10922 4.10727C4.26548 3.9509 4.47745 3.86301 4.69851 3.86293C4.91957 3.86285 5.1316 3.95059 5.28797 4.10685L7.05464 5.87435C7.21086 6.03062 7.29862 6.24255 7.29862 6.46352C7.29862 6.68449 7.21086 6.89641 7.05464 7.05268ZM4.10964 15.8918C3.95341 15.7356 3.86565 15.5237 3.86565 15.3027C3.86565 15.0817 3.95341 14.8698 4.10964 14.7135L5.87714 12.946C5.95401 12.8664 6.04596 12.8029 6.14763 12.7593C6.2493 12.7156 6.35865 12.6926 6.4693 12.6916C6.57995 12.6907 6.68968 12.7118 6.7921 12.7537C6.89451 12.7956 6.98755 12.8574 7.0658 12.9357C7.14404 13.0139 7.20592 13.107 7.24782 13.2094C7.28972 13.3118 7.31081 13.4215 7.30984 13.5322C7.30888 13.6428 7.28589 13.7522 7.24222 13.8539C7.19855 13.9555 7.13506 14.0475 7.05547 14.1244L5.2888 15.8918C5.21141 15.9693 5.1195 16.0308 5.01834 16.0727C4.91717 16.1147 4.80873 16.1363 4.69922 16.1363C4.58971 16.1363 4.48127 16.1147 4.3801 16.0727C4.27894 16.0308 4.18703 15.9693 4.10964 15.8918ZM12.948 7.05268C12.7917 6.89641 12.704 6.68449 12.704 6.46352C12.704 6.24255 12.7917 6.03062 12.948 5.87435L14.7146 4.10685C14.8709 3.95048 15.0829 3.86259 15.3039 3.86251C15.525 3.86244 15.737 3.95018 15.8934 4.10643C16.0498 4.26269 16.1376 4.47466 16.1377 4.69572C16.1378 4.91678 16.0501 5.12882 15.8938 5.28518L14.1263 7.05268C13.97 7.20891 13.7581 7.29667 13.5371 7.29667C13.3162 7.29667 13.1042 7.20891 12.948 7.05268Z" fill="#FAAD14"/>
</svg>
