<svg width="20" height="20" viewBox="0 0 20 20" fill="none" xmlns="http://www.w3.org/2000/svg">
<path d="M4.9987 10.834C4.9987 9.45898 5.55703 8.20898 6.46536 7.30065L5.28203 6.11732C4.08203 7.32565 3.33203 8.99232 3.33203 10.834C3.33203 14.234 5.8737 17.034 9.16536 17.4423V15.759C6.80703 15.359 4.9987 13.309 4.9987 10.834ZM16.6654 10.834C16.6654 7.15065 13.682 4.16732 9.9987 4.16732C9.9487 4.16732 9.8987 4.17565 9.8487 4.17565L10.757 3.26732L9.58203 2.08398L6.66536 5.00065L9.58203 7.91732L10.757 6.74232L9.85703 5.84232C9.90703 5.84232 9.95703 5.83398 9.9987 5.83398C12.757 5.83398 14.9987 8.07565 14.9987 10.834C14.9987 13.309 13.1904 15.359 10.832 15.759V17.4423C14.1237 17.034 16.6654 14.234 16.6654 10.834Z" fill="#FF4D5A"/>
</svg>
