<svg width="32" height="33" viewBox="0 0 32 33" fill="none" xmlns="http://www.w3.org/2000/svg">
<path d="M7.3936 27.1436L7.3696 27.1673L7.3444 27.1436H5.1904C4.87458 27.1433 4.5718 27.0193 4.34859 26.7989C4.12538 26.5785 4 26.2796 4 25.9681V7.00957C4.0022 6.69866 4.12828 6.40108 4.35102 6.18112C4.57375 5.96115 4.87526 5.83646 5.1904 5.83398H26.8096C27.4672 5.83398 28 6.36081 28 7.00957V25.9681C27.9978 26.279 27.8717 26.5765 27.649 26.7965C27.4263 27.0165 27.1247 27.1412 26.8096 27.1436H7.3936ZM25.6 20.0404V8.20172H6.4V24.7759L18.4 12.9372L25.6 20.0404ZM25.6 23.3884L18.4 16.2852L9.7936 24.7759H25.6V23.3884ZM11.2 15.3049C10.5635 15.3049 9.95303 15.0555 9.50294 14.6114C9.05286 14.1674 8.8 13.5652 8.8 12.9372C8.8 12.3092 9.05286 11.707 9.50294 11.263C9.95303 10.8189 10.5635 10.5695 11.2 10.5695C11.8365 10.5695 12.447 10.8189 12.8971 11.263C13.3471 11.707 13.6 12.3092 13.6 12.9372C13.6 13.5652 13.3471 14.1674 12.8971 14.6114C12.447 15.0555 11.8365 15.3049 11.2 15.3049Z" fill="#274985"/>
</svg>
