<svg width="167" height="43" viewBox="0 0 167 43" fill="none" xmlns="http://www.w3.org/2000/svg">
<path d="M17.1689 43C13.8709 43 10.67 42.5865 7.56597 41.7596C4.46198 40.9327 1.93999 39.8301 0 38.4519L3.78298 29.8283C5.60657 31.049 7.72117 32.0334 10.1268 32.7816C12.5323 33.5298 14.8991 33.9038 17.2271 33.9038C21.6503 33.9038 23.8619 32.7816 23.8619 30.5371C23.8619 29.3558 23.2217 28.4895 21.9413 27.9382C20.6997 27.3475 18.6821 26.7372 15.8885 26.1071C12.8233 25.4377 10.2626 24.7289 8.20616 23.9808C6.14977 23.1932 4.38438 21.9528 2.90999 20.2596C1.43559 18.5664 0.698397 16.2825 0.698397 13.408C0.698397 10.8878 1.37739 8.62363 2.73539 6.61538C4.09338 4.56776 6.11097 2.9533 8.78816 1.77198C11.5041 0.59066 14.8215 0 18.7403 0C21.4175 0 24.0559 0.315019 26.6555 0.945057C29.2551 1.53572 31.5443 2.4217 33.523 3.60302L29.9729 12.2857C26.0929 10.1593 22.3293 9.09616 18.6821 9.09616C16.3929 9.09616 14.7245 9.45055 13.6769 10.1593C12.6293 10.8288 12.1055 11.7147 12.1055 12.8173C12.1055 13.9199 12.7263 14.7468 13.9679 15.2981C15.2095 15.8494 17.2077 16.4203 19.9625 17.011C23.0665 17.6804 25.6273 18.4089 27.6449 19.1964C29.7013 19.9446 31.4667 21.1653 32.9411 22.8585C34.4542 24.5124 35.2108 26.7766 35.2108 29.6511C35.2108 32.1319 34.5318 34.3764 33.1739 36.3846C31.8159 38.3929 29.7789 40.0073 27.0629 41.228C24.3469 42.4093 21.0489 43 17.1689 43Z" fill="#096DD9"/>
<path d="M48.3607 18.5881C47.3805 18.5881 46.4291 18.4677 45.5065 18.227C44.584 17.9863 43.8344 17.6653 43.2578 17.2641L44.3822 14.7537C44.9242 15.109 45.5527 15.3956 46.2676 15.6134C46.9826 15.8312 47.6861 15.9401 48.378 15.9401C49.6926 15.9401 50.35 15.6134 50.35 14.96C50.35 14.6161 50.1597 14.3639 49.7791 14.2034C49.4101 14.0315 48.8104 13.8538 47.9801 13.6704C47.0691 13.4755 46.308 13.2692 45.6968 13.0514C45.0856 12.8221 44.5609 12.461 44.1227 11.9681C43.6845 11.4752 43.4654 10.8103 43.4654 9.97352C43.4654 9.23988 43.6672 8.58074 44.0708 7.99612C44.4744 7.40004 45.0741 6.93005 45.8698 6.58615C46.677 6.24226 47.663 6.07031 48.8277 6.07031C49.6234 6.07031 50.4076 6.16202 51.1803 6.34543C51.9529 6.51738 52.6333 6.7753 53.2214 7.11919L52.1662 9.64682C51.013 9.02781 49.8944 8.7183 48.8104 8.7183C48.1301 8.7183 47.6342 8.82147 47.3228 9.02781C47.0115 9.22268 46.8558 9.4806 46.8558 9.80157C46.8558 10.1225 47.0403 10.3633 47.4093 10.5238C47.7783 10.6842 48.3722 10.8505 49.191 11.0224C50.1135 11.2173 50.8747 11.4293 51.4743 11.6586C52.0855 11.8764 52.6102 12.2318 53.0484 12.7247C53.4982 13.2061 53.723 13.8653 53.723 14.7021C53.723 15.4242 53.5212 16.0776 53.1176 16.6623C52.714 17.2469 52.1086 17.7169 51.3013 18.0722C50.4941 18.4161 49.5139 18.5881 48.3607 18.5881Z" fill="#1E1E1E"/>
<path d="M69.697 18.3474L69.6624 11.9681L66.5488 17.1609H65.0266L61.9302 12.1401V18.3474H58.7647V6.31104H61.5843L65.8396 13.2577L69.9911 6.31104H72.8106L72.8452 18.3474H69.697Z" fill="#1E1E1E"/>
<path d="M86.841 16.0089H81.7208L80.7694 18.3474H77.2752L82.6203 6.31104H85.9934L91.3557 18.3474H87.7924L86.841 16.0089ZM85.8377 13.4984L84.2809 9.64682L82.7241 13.4984H85.8377Z" fill="#1E1E1E"/>
<path d="M101.079 15.1491H99.2113V18.3474H95.7863V6.31104H101.322C102.417 6.31104 103.369 6.49445 104.176 6.86127C104.983 7.21663 105.606 7.73247 106.044 8.4088C106.482 9.07366 106.701 9.85889 106.701 10.7645C106.701 11.6357 106.494 12.398 106.079 13.0514C105.675 13.6933 105.093 14.1977 104.331 14.5645L106.943 18.3474H103.276L101.079 15.1491ZM103.242 10.7645C103.242 10.2028 103.063 9.76718 102.705 9.45768C102.348 9.14817 101.817 8.99342 101.114 8.99342H99.2113V12.5183H101.114C101.817 12.5183 102.348 12.3693 102.705 12.0713C103.063 11.7618 103.242 11.3262 103.242 10.7645Z" fill="#1E1E1E"/>
<path d="M114.459 9.01061H110.74V6.31104H121.586V9.01061H117.884V18.3474H114.459V9.01061Z" fill="#1E1E1E"/>
<path d="M49.6407 24.6521C50.7363 24.6521 51.6877 24.8355 52.4949 25.2023C53.3021 25.5577 53.9249 26.0735 54.3631 26.7498C54.8013 27.4147 55.0204 28.1999 55.0204 29.1055C55.0204 30.0111 54.8013 30.7963 54.3631 31.4612C53.9249 32.1261 53.3021 32.6419 52.4949 33.0087C51.6877 33.3641 50.7363 33.5418 49.6407 33.5418H47.5304V36.6884H44.1054V24.6521H49.6407ZM49.4332 30.8594C50.1366 30.8594 50.6671 30.7104 51.0246 30.4123C51.3821 30.1028 51.5608 29.6672 51.5608 29.1055C51.5608 28.5438 51.3821 28.1082 51.0246 27.7987C50.6671 27.4892 50.1366 27.3345 49.4332 27.3345H47.5304V30.8594H49.4332Z" fill="#1E1E1E"/>
<path d="M65.4431 33.4902H63.5749V36.6884H60.1499V24.6521H65.6852C66.7808 24.6521 67.7321 24.8355 68.5394 25.2023C69.3466 25.5577 69.9693 26.0735 70.4076 26.7498C70.8458 27.4147 71.0649 28.1999 71.0649 29.1055C71.0649 29.9767 70.8573 30.739 70.4421 31.3924C70.0385 32.0344 69.4562 32.5387 68.6951 32.9056L71.307 36.6884H67.6399L65.4431 33.4902ZM67.6053 29.1055C67.6053 28.5438 67.4265 28.1082 67.0691 27.7987C66.7116 27.4892 66.1811 27.3345 65.4776 27.3345H63.5749V30.8594H65.4776C66.1811 30.8594 66.7116 30.7104 67.0691 30.4123C67.4265 30.1028 67.6053 29.6672 67.6053 29.1055Z" fill="#1E1E1E"/>
<path d="M82.5201 36.9291C81.2401 36.9291 80.0869 36.6597 79.0606 36.121C78.0457 35.5822 77.2443 34.8371 76.6562 33.8857C76.0796 32.9342 75.7913 31.8624 75.7913 30.6702C75.7913 29.4781 76.0796 28.4063 76.6562 27.4548C77.2443 26.5034 78.0457 25.7583 79.0606 25.2195C80.0869 24.6807 81.2401 24.4114 82.5201 24.4114C83.8002 24.4114 84.9476 24.6807 85.9624 25.2195C86.9888 25.7583 87.7902 26.5034 88.3668 27.4548C88.955 28.4063 89.249 29.4781 89.249 30.6702C89.249 31.8624 88.955 32.9342 88.3668 33.8857C87.7902 34.8371 86.9888 35.5822 85.9624 36.121C84.9476 36.6597 83.8002 36.9291 82.5201 36.9291ZM82.5201 34.1092C83.1313 34.1092 83.6849 33.9659 84.1807 33.6793C84.6766 33.3927 85.0687 32.9915 85.357 32.4757C85.6453 31.9484 85.7894 31.3466 85.7894 30.6702C85.7894 29.9939 85.6453 29.3978 85.357 28.882C85.0687 28.3547 84.6766 27.9478 84.1807 27.6612C83.6849 27.3746 83.1313 27.2313 82.5201 27.2313C81.9089 27.2313 81.3554 27.3746 80.8595 27.6612C80.3637 27.9478 79.9716 28.3547 79.6833 28.882C79.395 29.3978 79.2508 29.9939 79.2508 30.6702C79.2508 31.3466 79.395 31.9484 79.6833 32.4757C79.9716 32.9915 80.3637 33.3927 80.8595 33.6793C81.3554 33.9659 81.9089 34.1092 82.5201 34.1092Z" fill="#1E1E1E"/>
<path d="M100.038 24.6521C101.133 24.6521 102.085 24.8355 102.892 25.2023C103.699 25.5577 104.322 26.0735 104.76 26.7498C105.198 27.4147 105.417 28.1999 105.417 29.1055C105.417 30.0111 105.198 30.7963 104.76 31.4612C104.322 32.1261 103.699 32.6419 102.892 33.0087C102.085 33.3641 101.133 33.5418 100.038 33.5418H97.9274V36.6884H94.5025V24.6521H100.038ZM99.8302 30.8594C100.534 30.8594 101.064 30.7104 101.422 30.4123C101.779 30.1028 101.958 29.6672 101.958 29.1055C101.958 28.5438 101.779 28.1082 101.422 27.7987C101.064 27.4892 100.534 27.3345 99.8302 27.3345H97.9274V30.8594H99.8302Z" fill="#1E1E1E"/>
<path d="M120.268 34.0576V36.6884H110.547V24.6521H120.043V27.2829H113.937V29.3119H119.317V31.8567H113.937V34.0576H120.268Z" fill="#1E1E1E"/>
<path d="M130.922 33.4902H129.054V36.6884H125.629V24.6521H131.164C132.259 24.6521 133.211 24.8355 134.018 25.2023C134.825 25.5577 135.448 26.0735 135.886 26.7498C136.324 27.4147 136.544 28.1999 136.544 29.1055C136.544 29.9767 136.336 30.739 135.921 31.3924C135.517 32.0344 134.935 32.5387 134.174 32.9056L136.786 36.6884H133.119L130.922 33.4902ZM133.084 29.1055C133.084 28.5438 132.905 28.1082 132.548 27.7987C132.19 27.4892 131.66 27.3345 130.956 27.3345H129.054V30.8594H130.956C131.66 30.8594 132.19 30.7104 132.548 30.4123C132.905 30.1028 133.084 29.6672 133.084 29.1055Z" fill="#1E1E1E"/>
<path d="M144.301 27.3517H140.582V24.6521H151.428V27.3517H147.726V36.6884H144.301V27.3517Z" fill="#1E1E1E"/>
<path d="M162.363 32.3725V36.6884H158.938V32.3209L154.319 24.6521H157.935L160.806 29.4322L163.678 24.6521H166.999L162.363 32.3725Z" fill="#1E1E1E"/>
</svg>
