<svg width="124" height="38" viewBox="0 0 124 38" fill="none" xmlns="http://www.w3.org/2000/svg">
<path d="M123.36 24.8145C124.007 24.8145 124.224 25.6284 123.727 26.1242C123.378 26.452 118.395 30.9462 116.26 32.8718C116.192 32.9329 116.167 32.9948 116.167 33.0839C116.168 33.0839 116.167 36.8724 116.167 36.8732C116.167 37.7453 115.92 37.9833 115.178 37.9833C114.397 37.9833 113.868 37.998 113.135 37.998C112.686 37.9766 112.404 37.6179 112.365 37.1663C112.354 37.0485 112.349 34.4585 112.354 33.2821C112.355 33.1333 112.313 33.0316 112.2 32.9307C109.699 30.681 107.196 28.4343 104.704 26.1743C103.941 25.4826 104.635 24.8152 105.089 24.8152C106.067 24.8152 107.978 24.841 108.022 24.8432C108.423 24.8616 108.78 24.9949 109.088 25.2513C109.253 25.3883 114.245 30.046 114.281 30.0777C114.32 30.0446 119.114 25.5673 119.514 25.2211C119.742 25.0237 120.109 24.8152 120.667 24.8152H123.36V24.8145Z" fill="#00549F"/>
<path d="M102.345 24.8145C102.965 24.8145 103.283 25.2144 103.283 26.1338C103.282 26.4866 103.265 26.7319 103.265 27.1916C103.265 27.677 102.938 27.9879 102.454 28.035C102.283 28.0512 95.7674 28.0394 95.7674 28.0394C95.7674 28.0394 95.7674 33.9546 95.7674 36.7325C95.7674 37.7387 95.5061 37.9973 94.4927 37.9973C94.0299 37.9973 93.5679 37.9995 93.1058 37.9965C92.2873 37.9914 91.9662 37.6739 91.9662 36.8614C91.9648 34.0386 91.9655 28.1794 91.9655 28.0394C91.8127 28.0394 87.483 28.0394 85.5522 28.0394C84.682 28.0394 84.4561 27.5857 84.4561 26.989C84.4561 26.7179 84.4598 26.1839 84.4554 25.9128C84.445 25.2233 84.7122 24.8159 85.4282 24.8159H102.345V24.8145Z" fill="#00549F"/>
<path d="M82.8235 36.9119C82.8235 37.2493 82.8014 37.955 81.9932 37.955C81.8655 37.955 80.3147 37.958 79.8638 37.958C79.2423 37.958 79.0098 37.4195 79.0098 36.909C79.0098 34.4273 79.0098 27.086 79.0098 25.8978C79.0098 25.2053 79.3818 24.8164 80.0291 24.8164C80.6269 24.8164 81.2255 24.8164 81.8234 24.8164C82.5364 24.8164 82.8228 25.2437 82.8228 25.9029C82.8235 27.7394 82.8235 35.0785 82.8235 36.9119Z" fill="#00549F"/>
<path d="M66.0049 37.9899C65.0639 37.981 64.139 37.8426 63.2504 37.5125C61.6554 36.9196 60.6132 35.8021 60.0921 34.194C59.737 33.0979 59.6588 31.9694 59.7127 30.8261C59.7466 30.1064 59.8492 29.3985 60.0625 28.7083C60.6198 26.9035 61.8074 25.7286 63.6128 25.1739C64.5088 24.8984 65.4314 24.8145 66.3644 24.8145C69.66 24.8152 76.5221 24.824 76.6542 24.8491C77.0609 24.9257 77.3362 25.1982 77.3568 25.6108C77.3841 26.1463 77.3856 26.6855 77.3576 27.221C77.3332 27.6778 76.9819 27.9849 76.5169 28.0195C76.4062 28.0277 70.1206 28.0291 67.0885 28.0299C66.619 28.0299 66.1518 28.0593 65.6942 28.1787C64.6867 28.4424 64.035 29.0707 63.7781 30.0784C63.5412 31.0066 63.5427 31.9414 63.8165 32.8622C64.1103 33.85 64.7996 34.4238 65.7924 34.6537C66.2028 34.7487 66.6205 34.7782 67.0405 34.7782C70.1051 34.7774 76.5161 34.7841 76.652 34.812C77.0431 34.8931 77.3177 35.1347 77.3435 35.5295C77.3812 36.1041 77.3908 36.6875 77.3384 37.2599C77.2956 37.7321 76.9487 37.9648 76.4202 37.995C76.3597 37.9987 67.6583 38.0046 66.0049 37.9899Z" fill="#00549F"/>
<path d="M58.8103 36.6599C57.6877 35.6588 55.3516 33.6028 55.2859 33.5417C57.2825 33.2389 58.132 32.3307 58.5239 31.1005C58.9085 29.8931 58.9144 28.663 58.5734 27.4446C58.2479 26.2822 57.4958 25.4962 56.3466 25.1013C55.6823 24.873 54.9929 24.8148 54.2969 24.8148C50.0757 24.814 45.1851 24.8148 40.9639 24.8148C40.155 24.8148 40.0996 25.1264 40.0996 25.9256V28.0199C40.0996 28.0199 52.0206 28.0398 53.8304 28.0398C54.9095 28.0398 55.0305 28.8316 55.0305 29.4725C55.0305 30.3764 54.5508 30.9694 53.589 30.9694C51.8744 30.9694 40.2103 30.9517 40.2103 30.9517C40.2103 32.9605 40.1882 36.9818 40.1904 37.0385C40.2177 37.6064 40.5395 37.9703 41.1056 37.9703C41.8843 37.9703 42.4468 37.9924 43.2778 37.9924C43.7178 37.9924 43.9901 37.7994 43.9901 37.3088C43.9901 37.1703 43.9967 34.1332 43.9967 34.0787C43.9967 34.075 49.9797 34.0735 50.368 34.0735C50.7407 34.0735 50.8352 34.1369 51.0175 34.3122C51.9792 35.2367 53.3241 36.5125 54.2873 37.4363C54.598 37.7339 55.0497 37.9998 55.4881 37.9998C56.7651 37.9998 57.4618 37.9909 58.4915 37.9909C59.3882 37.9909 59.2015 37.0083 58.8103 36.6599Z" fill="#00549F"/>
<path d="M30.1071 24.8314C30.6319 24.841 31.0009 25.1121 31.2917 25.5327C32.1007 26.7017 32.9207 27.8634 33.7363 29.028C35.5239 31.5819 37.3109 34.1358 39.0993 36.6883C39.5266 37.3417 39.2986 37.9862 38.5811 37.9862C37.7737 37.9862 36.9662 37.9818 36.1594 37.9619C35.7594 37.9516 35.414 37.7873 35.1741 37.4588C34.7534 36.8835 34.3423 36.3001 33.9341 35.7152C33.8669 35.6194 33.7968 35.5863 33.6824 35.587C30.3492 35.5899 27.0159 35.5899 23.6827 35.587C23.5668 35.587 23.4974 35.6216 23.4317 35.7166C23.0782 36.2323 22.7062 36.7361 22.3622 37.2577C22.0449 37.7402 21.6123 37.9833 21.0381 37.984C20.348 37.9855 19.6579 37.9995 18.9677 37.9862C18.3684 37.9752 18.0495 37.4183 18.3197 36.8842C18.3499 36.8231 23.6421 29.2674 26.2409 25.54C26.579 25.0553 27.0159 24.8152 27.5975 24.8145C27.9887 24.8152 29.662 24.8233 30.1071 24.8314ZM25.4733 32.516H31.8933C30.8171 30.9617 29.7587 29.4324 28.6833 27.8781C27.6071 29.4332 26.5502 30.9602 25.4733 32.516Z" fill="#00549F"/>
<path d="M6.30769 37.9899C5.36661 37.981 4.44178 37.8426 3.55311 37.5125C1.95809 36.9196 0.915899 35.8021 0.394804 34.194C0.0397798 33.0979 -0.0384583 31.9694 0.0154226 30.8261C0.049375 30.1064 0.15197 29.3985 0.36528 28.7083C0.922542 26.9035 2.11014 25.7286 3.91552 25.1739C4.81157 24.8984 5.73419 24.8145 6.66714 24.8145C9.96273 24.8152 16.8248 24.824 16.9569 24.8491C17.3636 24.9257 17.6389 25.1982 17.6596 25.6108C17.6869 26.1463 17.6884 26.6855 17.6603 27.221C17.636 27.6778 17.2846 27.9849 16.8196 28.0195C16.7089 28.0277 10.4233 28.0291 7.39121 28.0299C6.92178 28.0299 6.45457 28.0593 5.99695 28.1787C4.99019 28.4424 4.33771 29.0707 4.08085 30.0784C3.84392 31.0066 3.8454 31.9414 4.11923 32.8622C4.41299 33.85 5.10238 34.4238 6.09511 34.6537C6.5055 34.7487 6.92326 34.7782 7.34323 34.7782C10.4078 34.7774 16.8189 34.7841 16.9547 34.812C17.3459 34.8931 17.6205 35.1347 17.6463 35.5295C17.6839 36.1041 17.6935 36.6875 17.6411 37.2599C17.5983 37.7321 17.2514 37.9648 16.7229 37.995C16.6624 37.9987 7.96102 38.0046 6.30769 37.9899Z" fill="#00549F"/>
<path d="M58.6875 0.896483L46.1022 8.14128C45.2726 8.61935 44.2326 8.63335 43.389 8.17811L42.0028 7.42969C39.9369 6.31443 37.4842 6.34094 35.4427 7.50335L25.0016 13.445C22.5592 14.8351 21.0601 17.4339 21.0823 20.2398L37.4112 10.9471C38.2459 10.472 39.2675 10.4609 40.1126 10.9169L41.4987 11.6653C43.5462 12.771 46.0712 12.7364 48.0877 11.5755L60.673 4.33141C61.5107 3.84891 62.5573 3.83934 63.4047 4.30415L76.373 11.4318C78.4448 12.5707 80.9625 12.5441 83.0099 11.3626L83.9554 10.8175C84.8183 10.3202 85.8892 10.3217 86.7491 10.8241L102.919 20.2479C102.906 17.3941 101.383 14.7607 98.9137 13.3213L88.7523 7.39949C86.6569 6.17815 84.0669 6.17226 81.9663 7.38402L81.0215 7.92913C80.1838 8.41162 79.1357 8.42341 78.2883 7.95712L65.3207 0.830923C64.3118 0.276238 63.1877 0 62.0628 0C60.8937 0 59.7245 0.29981 58.6875 0.896483Z" fill="url(#paint0_radial_8227_185682)"/>
<defs>
<radialGradient id="paint0_radial_8227_185682" cx="0" cy="0" r="1" gradientUnits="userSpaceOnUse" gradientTransform="translate(62.0005 10.1237) scale(29.8095 29.7505)">
<stop stop-color="#FFDD00"/>
<stop offset="0.00099609" stop-color="#FFDD00"/>
<stop offset="1" stop-color="#FAAF40"/>
</radialGradient>
</defs>
</svg>
