<svg width="16" height="19" viewBox="0 0 16 19" fill="none" xmlns="http://www.w3.org/2000/svg">
<path d="M8.0013 18.1665C9.00963 18.1665 9.83463 17.3415 9.83463 16.3332H6.16797C6.16797 17.3415 6.99297 18.1665 8.0013 18.1665ZM13.5013 12.6665V8.08317C13.5013 5.269 12.0071 2.91317 9.3763 2.28984V1.6665C9.3763 0.905671 8.76213 0.291504 8.0013 0.291504C7.24047 0.291504 6.6263 0.905671 6.6263 1.6665V2.28984C4.00464 2.91317 2.5013 5.25984 2.5013 8.08317V12.6665L0.667969 14.4998V15.4165H15.3346V14.4998L13.5013 12.6665ZM11.668 13.5832H4.33464V8.08317C4.33464 5.80984 5.7188 3.95817 8.0013 3.95817C10.2838 3.95817 11.668 5.80984 11.668 8.08317V13.5832Z" fill="#1E1E1E"/>
</svg>
