<svg width="12" height="15" viewBox="0 0 12 15" fill="none" xmlns="http://www.w3.org/2000/svg">
<path d="M1.5 8.75C1.5 7.5125 2.0025 6.3875 2.82 5.57L1.755 4.505C0.675 5.5925 0 7.0925 0 8.75C0 11.81 2.2875 14.33 5.25 14.6975V13.1825C3.1275 12.8225 1.5 10.9775 1.5 8.75ZM12 8.75C12 5.435 9.315 2.75 6 2.75C5.955 2.75 5.91 2.7575 5.865 2.7575L6.6825 1.94L5.625 0.875L3 3.5L5.625 6.125L6.6825 5.0675L5.8725 4.2575C5.9175 4.2575 5.9625 4.25 6 4.25C8.4825 4.25 10.5 6.2675 10.5 8.75C10.5 10.9775 8.8725 12.8225 6.75 13.1825V14.6975C9.7125 14.33 12 11.81 12 8.75Z" fill="#1E1E1E"/>
</svg>
