<svg width="18" height="18" viewBox="0 0 18 18" fill="none" xmlns="http://www.w3.org/2000/svg">
<path d="M12.5425 11.1274H11.7972L11.533 10.8726C12.4575 9.79717 13.0142 8.40094 13.0142 6.88208C13.0142 3.49528 10.2689 0.75 6.88208 0.75C3.49528 0.75 0.75 3.49528 0.75 6.88208C0.75 10.2689 3.49528 13.0142 6.88208 13.0142C8.40094 13.0142 9.79717 12.4575 10.8726 11.533L11.1274 11.7972V12.5425L15.8443 17.25L17.25 15.8443L12.5425 11.1274ZM6.88208 11.1274C4.53302 11.1274 2.63679 9.23113 2.63679 6.88208C2.63679 4.53302 4.53302 2.63679 6.88208 2.63679C9.23113 2.63679 11.1274 4.53302 11.1274 6.88208C11.1274 9.23113 9.23113 11.1274 6.88208 11.1274Z" fill="#8C8C8C"/>
</svg>
