<svg width="14" height="14" viewBox="0 0 14 14" fill="none" xmlns="http://www.w3.org/2000/svg">
<path d="M9.89837 8.74057H9.28859L9.07247 8.53216C9.8289 7.65223 10.2843 6.50986 10.2843 5.26715C10.2843 2.49614 8.03816 0.25 5.26715 0.25C2.49614 0.25 0.25 2.49614 0.25 5.26715C0.25 8.03816 2.49614 10.2843 5.26715 10.2843C6.50986 10.2843 7.65223 9.8289 8.53216 9.07247L8.74057 9.28859V9.89837L12.5999 13.75L13.75 12.5999L9.89837 8.74057ZM5.26715 8.74057C3.3452 8.74057 1.79374 7.18911 1.79374 5.26715C1.79374 3.3452 3.3452 1.79374 5.26715 1.79374C7.18911 1.79374 8.74057 3.3452 8.74057 5.26715C8.74057 7.18911 7.18911 8.74057 5.26715 8.74057Z" fill="#1890FF"/>
</svg>
